<svg width="82" height="28" viewBox="0 0 82 28" fill="none" xmlns="http://www.w3.org/2000/svg">
<path d="M73.8539 17.9922C72.4769 17.9922 71.1995 17.778 70.0217 17.3497C68.8604 16.9048 67.8484 16.2787 66.9857 15.4713C66.1397 14.664 65.4761 13.7166 64.995 12.6292C64.5139 11.5252 64.2733 10.3142 64.2733 8.99612C64.2733 7.67801 64.5139 6.47523 64.995 5.38778C65.4761 4.28386 66.1397 3.32823 66.9857 2.52089C67.8484 1.71355 68.8604 1.09568 70.0217 0.667295C71.1995 0.222432 72.4769 0 73.8539 0C75.4631 0 76.8981 0.280099 78.1589 0.840297C79.4363 1.40049 80.4981 2.20784 81.3442 3.26233L78.2087 6.07979C77.6446 5.42074 77.0225 4.91821 76.3424 4.5722C75.6788 4.2262 74.9322 4.0532 74.1027 4.0532C73.3894 4.0532 72.7341 4.16853 72.1369 4.3992C71.5396 4.62987 71.0253 4.96764 70.594 5.4125C70.1793 5.84089 69.8475 6.35989 69.5986 6.96952C69.3664 7.57915 69.2502 8.25468 69.2502 8.99612C69.2502 9.73756 69.3664 10.4131 69.5986 11.0227C69.8475 11.6323 70.1793 12.1596 70.594 12.6044C71.0253 13.0328 71.5396 13.3624 72.1369 13.593C72.7341 13.8237 73.3894 13.939 74.1027 13.939C74.9322 13.939 75.6788 13.766 76.3424 13.42C77.0225 13.074 77.6446 12.5715 78.2087 11.9124L81.3442 14.7299C80.4981 15.7679 79.4363 16.5753 78.1589 17.1519C76.8981 17.7121 75.4631 17.9922 73.8539 17.9922Z" fill="#1E2D82"></path>
<path d="M56.5931 17.9922C55.2161 17.9922 53.9387 17.778 52.7609 17.3497C51.5996 16.9048 50.5876 16.2787 49.7249 15.4713C48.8789 14.664 48.2153 13.7166 47.7342 12.6292C47.2531 11.5252 47.0125 10.3142 47.0125 8.99612C47.0125 7.67801 47.2531 6.47523 47.7342 5.38778C48.2153 4.28386 48.8789 3.32823 49.7249 2.52089C50.5876 1.71355 51.5996 1.09568 52.7609 0.667295C53.9387 0.222432 55.2161 0 56.5931 0C58.2023 0 59.6373 0.280099 60.8981 0.840297C62.1755 1.40049 63.2373 2.20784 64.0834 3.26233L60.9479 6.07979C60.3838 5.42074 59.7617 4.91821 59.0815 4.5722C58.418 4.2262 57.6714 4.0532 56.8419 4.0532C56.1286 4.0532 55.4733 4.16853 54.8761 4.3992C54.2788 4.62987 53.7645 4.96764 53.3332 5.4125C52.9185 5.84089 52.5867 6.35989 52.3378 6.96952C52.1056 7.57915 51.9894 8.25468 51.9894 8.99612C51.9894 9.73756 52.1056 10.4131 52.3378 11.0227C52.5867 11.6323 52.9185 12.1596 53.3332 12.6044C53.7645 13.0328 54.2788 13.3624 54.8761 13.593C55.4733 13.8237 56.1286 13.939 56.8419 13.939C57.6714 13.939 58.418 13.766 59.0815 13.42C59.7617 13.074 60.3838 12.5715 60.9479 11.9124L64.0834 14.7299C63.2373 15.7679 62.1755 16.5753 60.8981 17.1519C59.6373 17.7121 58.2023 17.9922 56.5931 17.9922Z" fill="#1E2D82"></path>
<path d="M29.5297 17.6462V0.346008H38.4384C40.7278 0.346008 42.4365 0.766157 43.5646 1.60645C44.6927 2.43027 45.2568 3.51772 45.2568 4.86878C45.2568 5.75851 45.0162 6.54114 44.5351 7.21667C44.0706 7.87573 43.407 8.40297 42.5444 8.79841C41.6983 9.17736 40.6863 9.36684 39.5085 9.36684L40.0061 8.18054C41.2338 8.18054 42.3038 8.37002 43.2163 8.74898C44.1287 9.11146 44.8338 9.64694 45.3315 10.3554C45.8457 11.0474 46.1029 11.896 46.1029 12.901C46.1029 14.4004 45.4891 15.5702 44.2614 16.4105C43.0504 17.2343 41.2753 17.6462 38.9361 17.6462H29.5297ZM34.4071 14.112H38.538C39.384 14.112 40.0227 13.972 40.4541 13.6919C40.902 13.3953 41.126 12.9505 41.126 12.3573C41.126 11.7642 40.902 11.3275 40.4541 11.0474C40.0227 10.7509 39.384 10.6026 38.538 10.6026H34.0587V7.21667H37.7914C38.6209 7.21667 39.243 7.07662 39.6578 6.79652C40.0725 6.51642 40.2799 6.09627 40.2799 5.53608C40.2799 4.97588 40.0725 4.56397 39.6578 4.30035C39.243 4.02025 38.6209 3.8802 37.7914 3.8802H34.4071V14.112Z" fill="#1E2D82"></path>
<path d="M79.7181 25.5203H81.6748V26.2469H79.7181V25.5203ZM79.7877 27.1811H82V27.9308H78.8529V23.8941H81.9245V24.6438H79.7877V27.1811Z" fill="#1E2D82"></path>
<path d="M75.4067 27.9308V23.8941H76.3474V27.1696H78.3854V27.9308H75.4067Z" fill="#1E2D82"></path>
<path d="M71.0249 27.9308V23.8941H73.0107C73.5217 23.8941 73.9049 23.9902 74.1604 24.1824C74.4197 24.3747 74.5494 24.6284 74.5494 24.9437C74.5494 25.1551 74.4971 25.3396 74.3926 25.4973C74.2881 25.651 74.1449 25.7702 73.9629 25.8548C73.781 25.9394 73.572 25.9817 73.3359 25.9817L73.4462 25.7452C73.7017 25.7452 73.9281 25.7875 74.1255 25.8721C74.3229 25.9528 74.4758 26.0739 74.5842 26.2354C74.6965 26.3969 74.7526 26.5949 74.7526 26.8294C74.7526 27.1754 74.6152 27.4464 74.3404 27.6425C74.0655 27.8347 73.661 27.9308 73.1268 27.9308H71.0249ZM71.9597 27.2273H73.0571C73.301 27.2273 73.4849 27.1888 73.6088 27.1119C73.7365 27.0312 73.8004 26.9043 73.8004 26.7313C73.8004 26.5622 73.7365 26.4372 73.6088 26.3565C73.4849 26.2719 73.301 26.2296 73.0571 26.2296H71.8901V25.5492H72.8946C73.1229 25.5492 73.2971 25.5107 73.4171 25.4338C73.541 25.3531 73.6029 25.232 73.6029 25.0705C73.6029 24.9129 73.541 24.7956 73.4171 24.7187C73.2971 24.638 73.1229 24.5976 72.8946 24.5976H71.9597V27.2273Z" fill="#1E2D82"></path>
<path d="M66.1033 27.9308L67.9149 23.8941H68.8439L70.6613 27.9308H69.6742L68.1878 24.367H68.5594L67.0671 27.9308H66.1033ZM67.0091 27.0658L67.2587 26.3565H69.3491L69.6045 27.0658H67.0091Z" fill="#1E2D82"></path>
<path d="M64.456 28C64.1425 28 63.8502 27.95 63.5792 27.8501C63.3121 27.7463 63.0799 27.6002 62.8825 27.4118C62.685 27.2234 62.5302 27.0024 62.418 26.7486C62.3096 26.4949 62.2554 26.2162 62.2554 25.9125C62.2554 25.6087 62.3096 25.33 62.418 25.0763C62.5302 24.8225 62.685 24.6015 62.8825 24.4131C63.0838 24.2247 63.3179 24.0805 63.585 23.9806C63.8521 23.8768 64.1444 23.8249 64.4618 23.8249C64.8141 23.8249 65.1315 23.8864 65.4141 24.0094C65.7005 24.1286 65.9405 24.3055 66.1341 24.54L65.5302 25.0936C65.3908 24.9359 65.236 24.8187 65.0657 24.7418C64.8954 24.6611 64.7095 24.6207 64.5083 24.6207C64.3186 24.6207 64.1444 24.6515 63.9857 24.713C63.827 24.7745 63.6896 24.8629 63.5734 24.9782C63.4573 25.0936 63.3663 25.2301 63.3005 25.3877C63.2386 25.5453 63.2076 25.7202 63.2076 25.9125C63.2076 26.1047 63.2386 26.2796 63.3005 26.4372C63.3663 26.5948 63.4573 26.7313 63.5734 26.8467C63.6896 26.962 63.827 27.0504 63.9857 27.1119C64.1444 27.1734 64.3186 27.2042 64.5083 27.2042C64.7095 27.2042 64.8954 27.1658 65.0657 27.0889C65.236 27.0081 65.3908 26.887 65.5302 26.7256L66.1341 27.2792C65.9405 27.5137 65.7005 27.6925 65.4141 27.8155C65.1315 27.9385 64.8121 28 64.456 28Z" fill="#1E2D82"></path>
<path d="M57.5264 27.0081L57.4741 25.9298L59.4193 23.8941H60.4644L58.7109 25.7683L58.1883 26.3219L57.5264 27.0081ZM56.6844 27.9308V23.8941H57.6193V27.9308H56.6844ZM59.4657 27.9308L58.0199 26.172L58.6354 25.5088L60.5631 27.9308H59.4657Z" fill="#1E2D82"></path>
<path d="M53.8176 28C53.4963 28 53.1982 27.9481 52.9234 27.8443C52.6524 27.7405 52.4163 27.5944 52.215 27.406C52.0176 27.2177 51.8627 26.9966 51.7505 26.7429C51.6421 26.4891 51.5879 26.2123 51.5879 25.9125C51.5879 25.6126 51.6421 25.3358 51.7505 25.082C51.8627 24.8283 52.0195 24.6072 52.2208 24.4189C52.4221 24.2305 52.6582 24.0844 52.9292 23.9806C53.2001 23.8768 53.4943 23.8249 53.8117 23.8249C54.133 23.8249 54.4272 23.8768 54.6943 23.9806C54.9653 24.0844 55.1995 24.2305 55.3969 24.4189C55.5982 24.6072 55.755 24.8283 55.8672 25.082C55.9795 25.3319 56.0356 25.6087 56.0356 25.9125C56.0356 26.2123 55.9795 26.491 55.8672 26.7486C55.755 27.0024 55.5982 27.2234 55.3969 27.4118C55.1995 27.5963 54.9653 27.7405 54.6943 27.8443C54.4272 27.9481 54.135 28 53.8176 28ZM53.8117 27.2042C53.9937 27.2042 54.1601 27.1734 54.3111 27.1119C54.4659 27.0504 54.6014 26.962 54.7175 26.8467C54.8337 26.7313 54.9227 26.5948 54.9846 26.4372C55.0504 26.2796 55.0833 26.1047 55.0833 25.9125C55.0833 25.7202 55.0504 25.5453 54.9846 25.3877C54.9227 25.2301 54.8337 25.0936 54.7175 24.9782C54.6053 24.8629 54.4717 24.7745 54.3169 24.713C54.1621 24.6515 53.9937 24.6207 53.8117 24.6207C53.6298 24.6207 53.4614 24.6515 53.3066 24.713C53.1556 24.7745 53.0221 24.8629 52.9059 24.9782C52.7898 25.0936 52.6989 25.2301 52.633 25.3877C52.5711 25.5453 52.5401 25.7202 52.5401 25.9125C52.5401 26.1008 52.5711 26.2758 52.633 26.4372C52.6989 26.5948 52.7879 26.7313 52.9001 26.8467C53.0163 26.962 53.1517 27.0504 53.3066 27.1119C53.4614 27.1734 53.6298 27.2042 53.8117 27.2042Z" fill="#1E2D82"></path>
<path d="M48.5927 27.0081L48.5404 25.9298L50.4856 23.8941H51.5307L49.7772 25.7683L49.2546 26.3219L48.5927 27.0081ZM47.7507 27.9308V23.8941H48.6856V27.9308H47.7507ZM50.532 27.9308L49.0862 26.172L49.7017 25.5088L51.6294 27.9308H50.532Z" fill="#1E2D82"></path>
<path d="M45.2918 28C44.9706 28 44.6744 27.95 44.4035 27.8501C44.1364 27.7463 43.9022 27.6002 43.7009 27.4118C43.5035 27.2234 43.3486 27.0024 43.2364 26.7486C43.128 26.4949 43.0738 26.2162 43.0738 25.9125C43.0738 25.6087 43.128 25.33 43.2364 25.0763C43.3486 24.8225 43.5054 24.6015 43.7067 24.4131C43.908 24.2247 44.1441 24.0805 44.4151 23.9806C44.686 23.8768 44.9841 23.8249 45.3093 23.8249C45.6693 23.8249 45.9925 23.8845 46.2789 24.0037C46.5692 24.1228 46.8131 24.2958 47.0105 24.5227L46.4067 25.0763C46.2596 24.9225 46.0989 24.8091 45.9247 24.736C45.7505 24.6591 45.5609 24.6207 45.3557 24.6207C45.1583 24.6207 44.9783 24.6515 44.8157 24.713C44.6531 24.7745 44.5118 24.8629 44.3918 24.9782C44.2757 25.0936 44.1848 25.2301 44.1189 25.3877C44.057 25.5453 44.026 25.7202 44.026 25.9125C44.026 26.1008 44.057 26.2738 44.1189 26.4315C44.1848 26.5891 44.2757 26.7275 44.3918 26.8467C44.5118 26.962 44.6512 27.0504 44.8099 27.1119C44.9725 27.1734 45.1506 27.2042 45.3441 27.2042C45.5299 27.2042 45.7099 27.1754 45.8841 27.1177C46.0622 27.0562 46.2344 26.9543 46.4009 26.8121L46.9351 27.4868C46.7144 27.6521 46.457 27.779 46.1628 27.8674C45.8725 27.9558 45.5822 28 45.2918 28ZM46.0757 27.3657V25.849H46.9351V27.4868L46.0757 27.3657Z" fill="#1E2D82"></path>
<path d="M38.6979 27.9308V23.8941H39.476L41.874 26.8005H41.4966V23.8941H42.4257V27.9308H41.6534L39.2495 25.0244H39.627V27.9308H38.6979Z" fill="#1E2D82"></path>
<path d="M33.7763 27.9308L35.5879 23.8941H36.5169L38.3343 27.9308H37.3472L35.8608 24.367H36.2324L34.7402 27.9308H33.7763ZM34.6821 27.0658L34.9318 26.3565H37.0221L37.2776 27.0658H34.6821Z" fill="#1E2D82"></path>
<path d="M29.9287 27.9308V23.8941H31.9145C32.4255 23.8941 32.8087 23.9902 33.0642 24.1824C33.3235 24.3747 33.4532 24.6284 33.4532 24.9437C33.4532 25.1551 33.4009 25.3396 33.2964 25.4973C33.1919 25.651 33.0487 25.7702 32.8668 25.8548C32.6848 25.9394 32.4758 25.9817 32.2397 25.9817L32.35 25.7452C32.6055 25.7452 32.8319 25.7875 33.0293 25.8721C33.2268 25.9528 33.3797 26.0739 33.488 26.2354C33.6003 26.3969 33.6564 26.5949 33.6564 26.8294C33.6564 27.1754 33.519 27.4464 33.2442 27.6425C32.9693 27.8347 32.5648 27.9308 32.0306 27.9308H29.9287ZM30.8635 27.2273H31.961C32.2048 27.2273 32.3887 27.1888 32.5126 27.1119C32.6403 27.0312 32.7042 26.9043 32.7042 26.7313C32.7042 26.5622 32.6403 26.4372 32.5126 26.3565C32.3887 26.2719 32.2048 26.2296 31.961 26.2296H30.7939V25.5492H31.7984C32.0268 25.5492 32.201 25.5107 32.321 25.4338C32.4448 25.3531 32.5068 25.232 32.5068 25.0705C32.5068 24.9129 32.4448 24.7956 32.321 24.7187C32.201 24.638 32.0268 24.5976 31.7984 24.5976H30.8635V27.2273Z" fill="#1E2D82"></path>
<ellipse cx="13.6865" cy="13.9391" rx="2.07372" ry="2.05955" fill="#C81E1E"></ellipse>
<path fill-rule="evenodd" clip-rule="evenodd" d="M13.6865 23.8249C19.1839 23.8249 23.6404 19.3988 23.6404 13.939C23.6404 8.47924 19.1839 4.0532 13.6865 4.0532C8.18918 4.0532 3.73269 8.47924 3.73269 13.939C3.73269 19.3988 8.18918 23.8249 13.6865 23.8249ZM13.6865 27.5321C21.2454 27.5321 27.3731 21.4463 27.3731 13.939C27.3731 6.43182 21.2454 0.346008 13.6865 0.346008C6.12767 0.346008 0 6.43182 0 13.939C0 21.4463 6.12767 27.5321 13.6865 27.5321Z" fill="#C81E1E"></path>
<ellipse cx="19.0782" cy="13.9391" rx="2.07372" ry="2.05955" fill="#C81E1E"></ellipse>
<ellipse cx="8.29485" cy="13.9391" rx="2.07372" ry="2.05955" fill="#C81E1E"></ellipse>
<ellipse cx="11.198" cy="8.99613" rx="2.07372" ry="2.05955" fill="#C81E1E"></ellipse>
<ellipse cx="11.198" cy="18.4701" rx="2.07372" ry="2.05955" fill="#C81E1E"></ellipse>
<ellipse cx="16.5898" cy="8.99613" rx="2.07372" ry="2.05955" fill="#C81E1E"></ellipse>
<ellipse cx="16.5898" cy="18.4701" rx="2.07372" ry="2.05955" fill="#C81E1E"></ellipse>
<rect x="29.4468" y="20.5296" width="52.2577" height="0.82382" fill="#C81E1E"></rect>
</svg>